<svg width="68" height="44" viewBox="0 0 68 44" fill="none" xmlns="http://www.w3.org/2000/svg">
<path fill-rule="evenodd" clip-rule="evenodd" d="M60.99 0.603188L67.75 4.49251C68.08 4.69197 68.08 5.17065 67.75 5.36013L60.99 9.24946C60.66 9.43894 60.24 9.1996 60.24 8.82064V1.03201C60.24 0.653054 60.66 0.413708 60.99 0.603188ZM11.56 30.0025H11.57C17.54 30.0025 22.38 25.1758 22.38 19.2221V19.0127C22.38 15.9511 21.06 13.1787 18.97 11.244L21.79 8.4317H19.64H16.69H16.67H11.94H11.76H11.55C5.57999 8.4317 0.73999 13.2585 0.73999 19.2121V19.2221C0.749989 25.1758 5.58999 30.0025 11.56 30.0025ZM5.85999 19.2121C5.85999 16.0807 8.42999 13.5277 11.56 13.5277H11.57C14.71 13.5277 17.26 16.0707 17.26 19.2021V19.2221C17.26 22.3535 14.71 24.8965 11.57 24.8965H11.56C8.41998 24.8965 5.85999 22.3435 5.85999 19.2121ZM50.72 8.4317H50.71C44.74 8.4317 39.9 13.2585 39.9 19.2121V19.2221C39.9 25.1758 44.74 30.0025 50.71 30.0025H50.72C56.69 30.0025 61.53 25.1758 61.53 19.2221V19.2121C61.53 13.2585 56.69 8.4317 50.72 8.4317ZM56.43 19.2221C56.43 22.3535 53.88 24.8965 50.74 24.8965H50.73C47.59 24.8965 45.03 22.3336 45.03 19.2121C45.03 16.0807 47.6 13.5277 50.73 13.5277H50.74C53.87 13.5277 56.43 16.0807 56.43 19.2021V19.2221ZM14.13 32.5455H19.23L22.39 32.5655V32.5754C22.39 38.5291 17.55 43.3559 11.58 43.3559H11.57C5.59999 43.3559 0.759987 38.5291 0.759987 32.5754V32.5655H5.87999C5.87999 35.6869 8.43999 38.2499 11.58 38.2499H11.59C13.83 38.2499 15.76 36.9634 16.69 35.0985L14.13 32.5455ZM26.51 19.2221V30.0025H31.62V19.2221C31.62 16.0807 34.17 13.5377 37.32 13.5377V8.44168C31.35 8.43171 26.51 13.2585 26.51 19.2221Z" fill="white"/>
</svg>
